<svg width="100" height="100" viewBox="0 0 100 100" fill="none" xmlns="http://www.w3.org/2000/svg">
<rect width="100" height="100" fill="#F1F3F8"/>
<g clip-path="url(#clip0_3787_16053)">
<path d="M87.4973 98.3445V94.223C87.4973 90.0223 85.5371 85.98 82.2649 83.4279C74.6455 77.4993 66.8838 73.3619 64.1648 71.9828V67.2748C64.7181 66.0383 65.1765 64.6909 65.5243 63.2325C67.5477 62.5034 68.6543 59.5232 69.3972 56.8918C70.3931 53.3885 70.2825 50.9315 69.1127 49.5682C70.3457 42.8311 69.7924 37.8695 67.4845 34.8101C66.2673 33.209 64.8445 32.5274 63.8961 32.2262C63.2163 31.2751 61.841 29.674 59.5173 28.39C57.1144 26.9634 54.4113 26.25 51.4394 26.25C50.9019 26.25 50.3645 26.2817 49.8902 26.3134C48.5623 26.3768 47.2503 26.6305 45.954 27.0585C45.9382 27.0585 45.9224 27.0743 45.9066 27.0743C44.4839 27.5657 43.0928 28.2791 41.7491 29.1985C40.2157 30.1813 38.8088 31.3543 37.5916 32.6542C35.2046 35.1113 33.6238 37.8853 32.9441 40.8496C32.296 43.3067 32.2485 45.7796 32.786 48.2049C32.5015 48.411 32.2485 48.6488 32.0272 48.9341C30.9365 50.3766 30.8891 52.6435 31.8533 56.0833C32.5173 58.4611 33.4025 60.8865 34.9043 61.9802C35.3469 64.2629 36.0899 66.3395 37.0858 68.1783V71.9987C34.3668 73.3778 26.6051 77.4993 18.9857 83.4437C15.7134 85.9959 13.7532 90.0223 13.7532 94.2389V98.3604C13.7532 101.341 16.1719 103.75 19.1279 103.75H82.1226C85.0787 103.75 87.4973 101.325 87.4973 98.3445Z" fill="#B5B7BF"/>
</g>
<defs>
<clipPath id="clip0_3787_16053">
<rect width="77" height="74" fill="white" transform="translate(12 26)"/>
</clipPath>
</defs>
</svg>
